<svg width="22" height="22" viewBox="0 0 22 22" fill="none" xmlns="http://www.w3.org/2000/svg">
<path d="M5.81481 14.3334L4.33333 5.16671L8.4074 9.33337L11 4.33337L13.5926 9.33337L17.6667 5.16671L16.1852 14.3334H5.81481ZM16.1852 16.8334C16.1852 17.3334 15.8889 17.6667 15.4444 17.6667H6.55555C6.11111 17.6667 5.81481 17.3334 5.81481 16.8334V16H16.1852V16.8334Z" fill="black"/>
<path d="M19.3333 1H2.66667C1.74619 1 1 1.74619 1 2.66667V19.3333C1 20.2538 1.74619 21 2.66667 21H19.3333C20.2538 21 21 20.2538 21 19.3333V2.66667C21 1.74619 20.2538 1 19.3333 1Z" stroke="black" stroke-width="2" stroke-linecap="round" stroke-linejoin="round"/>
</svg>
